<svg xmlns="http://www.w3.org/2000/svg" xmlns:xlink="http://www.w3.org/1999/xlink" viewBox="0 0 392.69 204.85"><defs><style>.cls-1{fill:none;}.cls-2{clip-path:url(#clip-path);}.cls-3{fill:url(#linear-gradient);}.cls-4{clip-path:url(#clip-path-2);}.cls-5{fill:url(#linear-gradient-2);}</style><clipPath id="clip-path"><path class="cls-1" d="M5.06,134.53a4.28,4.28,0,0,1,.33-.29l3,3.54-.4.33-2.88-3.58m124.57,55.88a15.84,15.84,0,0,1-3.59-3.85,6.92,6.92,0,0,1-1-3.47,12,12,0,0,1,1.5-6.64,31.67,31.67,0,0,1,5.86-7.4c4.71-4.61,9.5-9.13,14.4-13.51,2.6-2.31,5.49-4.29,8.27-6.38,4.19-3.15,8.36-6.33,12.66-9.35,3.92-2.78,8-5.36,12-8.06,5.08-3.46,10.15-7,15.24-10.42.37-.24.81-.38,1.47-.7a9.06,9.06,0,0,1,.07,1.45c-.27,2.08-.67,4.12-.85,6.2a165.73,165.73,0,0,1-3.67,22.83,96,96,0,0,1-5.63,17.56q-2.37,5.37-4.87,10.65a30.37,30.37,0,0,1-6,8.31,43.65,43.65,0,0,1-10.54,8.06,21.49,21.49,0,0,1-8.4,2.49q-1.63.12-3.24.12a38.79,38.79,0,0,1-23.62-7.89m-13.06-87.62a3.27,3.27,0,0,1,.17-1.15c.88-1.4,1.8-2.77,2.75-4.13q1.83-2.64,3.74-5.23a2.39,2.39,0,0,1,.79-.76c1.67-.9,2.61-.28,2.63,2.2a7.35,7.35,0,0,1-2.14,4.2,19.6,19.6,0,0,1-6.46,4.72,1.69,1.69,0,0,1-.43.2h-.14c-.31,0-.61,0-.91,0M305,1.69c-7.51,1.25-15,2.73-22.45,4.11a157.37,157.37,0,0,0-17.9,4.53c-4.05,1.26-8,2.68-12,4-2,.67-2,.63-3.16-1a24.89,24.89,0,0,0-2.72-3.16,5.44,5.44,0,0,0-4.23-1.64,2.91,2.91,0,0,0-3.07,3c0,1.39.09,2.79.11,4.18,0,2.2-.11,2.44-2.11,3.22-5.39,2.11-10.81,4.16-16.6,4.92-2.17.28-4.35.43-6.54.63a15.86,15.86,0,0,0-2.07.12c-1.32.27-1.64,1.39-.72,2.4a4.58,4.58,0,0,0,.86.71A12.72,12.72,0,0,0,219.26,30a39.27,39.27,0,0,0,15-2.41c1.71-.66,3.39-1.33,5.12-1.93.45-.15,1.17-.27,1.48,0s.3.95.21,1.42c-1.08,5.91-2.24,11.79-3.33,17.7-.67,3.68-1.22,7.39-1.88,11.09-1.34,7.59-2.75,15.18-4.07,22.77-.66,3.8-1.19,7.62-1.82,11.42a4.09,4.09,0,0,1-1.53,3.07c-1,.66-2,1.29-3,1.87a86.35,86.35,0,0,0-11.94,8.4c-2.13,1.72-4.08,3.63-6.13,5.42a3.14,3.14,0,0,1-1.1.41,4,4,0,0,1-.18-1.16c.11-.84.43-1.67.5-2.51.32-3.25.51-6.52.87-9.77.28-2.44.8-4.86,1.09-7.3A4.72,4.72,0,0,0,205.09,83c-2.75-.92-4.75.32-5.35,3.14a11.57,11.57,0,0,1-1.39,3.55q-2.57,4.17-5.41,8.15a94.37,94.37,0,0,1-13.56,16,20.17,20.17,0,0,1-7.1,4.58c-4,1.33-7.1-.45-7.88-4.59a8.84,8.84,0,0,1-.24-1.91c.07-2.84.07-5.68.3-8.51A36.79,36.79,0,0,1,167.9,91a3.92,3.92,0,0,0,.41-2c-.43-2.88-4.35-4.58-6.79-2.94a9,9,0,0,0-4,5.83c-.76,3.6-1.33,7.27-1.91,10.92-.15.84-.23,1.47-1.36,1.6a6.17,6.17,0,0,0-2.24,1.16c-3.87,2.51-7.62,5.18-11.58,7.52-4.67,2.76-9.56,5.11-15,5.86a18.37,18.37,0,0,1-4.91-.1,5.47,5.47,0,0,1-4.37-3.64,15.86,15.86,0,0,1-.84-2.43,1.85,1.85,0,0,1,1-2.43c1.34-.79,2.68-1.58,4.06-2.27a23.76,23.76,0,0,0,12-12.66,7.56,7.56,0,0,0-1.38-8.13,7,7,0,0,0-8-2.2,22.92,22.92,0,0,0-7.35,4.53c-3.11,2.74-4.76,6.42-6.08,10.23a9.31,9.31,0,0,1-4.56,5.34c-2.57,1.44-5.13,2.89-7.64,4.43-5.34,3.27-10.55,6.77-16,9.88-5.91,3.39-12,6.48-18,9.64a128.81,128.81,0,0,1-19,8.15,57,57,0,0,1-15.85,3.24c-4.2.18-8.36.14-12.33-1.57-4.35-1.86-7.39-4.8-8.52-9.55a31.29,31.29,0,0,1-.32-13.24c.73-3.77,1.79-7.49,2.76-11.22A67.08,67.08,0,0,1,17,87.5c2.22-3.72,4.29-7.54,6.66-11.18A159,159,0,0,1,41.4,54.16c3.24-3.45,7-6.38,10.59-9.56,1.83-1.63,3.6-3.35,5.51-4.9C59.67,38,62,36.39,64.23,34.77a98.65,98.65,0,0,1,13.35-8,69.36,69.36,0,0,1,15-5.64,33,33,0,0,1,14-.46,17.35,17.35,0,0,1,5.28,1.79,9.16,9.16,0,0,1,4.69,7.91c.41,6.46-1.73,12-7.91,14.77A22.5,22.5,0,0,0,105.3,47c-1.16.8-1,1.68.29,2.23a5,5,0,0,0,3.77-.15c6.4-2.14,12.27-8.73,12.33-15.91a28.2,28.2,0,0,0-.19-4c-.84-5.94-3.69-10.51-9.13-13.33-4.17-2.16-8.63-2.52-13.16-2.16a63.66,63.66,0,0,0-17.47,4.07A116.79,116.79,0,0,0,70.36,23,96.43,96.43,0,0,0,54.12,33,176.54,176.54,0,0,0,32,53.42a116.86,116.86,0,0,0-10.6,13.3c-1.82,2.7-3.83,5.28-5.5,8.08-2.3,3.85-4.41,7.83-6.55,11.79a66.69,66.69,0,0,0-5.7,13.57c-1.37,4.89-2.3,9.9-3.29,14.89a22.47,22.47,0,0,0-.19,4.65,32.21,32.21,0,0,0,1.33,8.53,23.63,23.63,0,0,0,6,10.79,22.9,22.9,0,0,0,11.66,6,33.31,33.31,0,0,0,12.47,0,67.91,67.91,0,0,0,16.28-4.3c5.1-2.22,10.28-4.29,15.24-6.81,5.38-2.75,10.57-5.88,15.8-8.94,3.37-2,6.68-4,10-6.14,3.65-2.33,7.23-4.79,10.86-7.14,2.4-1.55,4.83-3,7.27-4.45,1.15-.67,1.56-.37,1.68.84.24,2.43.63,4.86.83,7.3.24,3.1,2.21,5.16,4.33,7a10.35,10.35,0,0,0,4.19,1.86c3.11.75,6.14.09,9.13-1,7.22-2.53,13.39-6.92,19.58-11.24,2.49-1.74,4.73-3.83,7.1-5.74.35-.29.75-.53,1.4-1a6.83,6.83,0,0,1,.19,1.77,14.65,14.65,0,0,0,.46,6.68c.91,3.46,2.62,6.46,5.8,8.32,6,3.5,12,3.22,17.82-.32a44.18,44.18,0,0,0,12.88-11.94c1.16-1.61,2.22-3.26,3.4-4.84.25-.34.75-.46,1.15-.69.17.36.36.72.5,1.1a2.28,2.28,0,0,1,0,.64c-.13,3.21-.25,6.43-.35,9.63a3.08,3.08,0,0,1-1.65,2.75c-2.8,1.68-5.61,3.35-8.33,5.15-5.79,3.85-11.59,7.68-17.27,11.7s-11.19,8.11-16.65,12.34c-3.83,3-7.51,6.18-11.14,9.42-3.24,2.89-6.31,6-9.43,9a47.37,47.37,0,0,0-8.63,11.1,13.77,13.77,0,0,0,2,16.2,40.18,40.18,0,0,0,13.55,8.4c6.7,2.74,13.76,3.1,20.88,2.22a27.08,27.08,0,0,0,18-9.49c.84-1,1.64-2,2.51-2.91a44.74,44.74,0,0,0,8.51-12.19c1.87-4.26,3.6-8.6,5.28-12.94a110.43,110.43,0,0,0,5.33-20.17c1.71-9.27,2.79-18.65,4.15-28a7.15,7.15,0,0,1,1.22-3.59,59.31,59.31,0,0,1,8.27-8.72,107.87,107.87,0,0,1,12.84-9.34,5.75,5.75,0,0,1,1.62-.42,7.29,7.29,0,0,1,.2,1.65c-.44,4.31-1,8.62-1.41,12.94-.44,5.11-.7,10.26-1.08,15.38a223.23,223.23,0,0,0-.48,24.26,28.07,28.07,0,0,0,1.26,8.72,5.69,5.69,0,0,0,3.25,3.56c3,1.24,5.65-.26,6-3.43a14.59,14.59,0,0,0,0-3.85,133.42,133.42,0,0,1-1.27-22,345.26,345.26,0,0,1,3-38.29,1.44,1.44,0,0,1,.95-1.34c1.57-.66,3.14-1.35,4.7-2,4-1.79,7.81-3.85,11.87-5.33q13.65-5,27.49-9.45a101.06,101.06,0,0,1,28.45-4.81,9.63,9.63,0,0,1,1.2,0c.4,0,.8.06,1.2,0,1.68-.08,2.42-1.38,1.49-2.77A5.18,5.18,0,0,0,313,67.85c-3.13-1.51-6.5-1.59-9.91-1.38a116.06,116.06,0,0,0-22.72,4.22c-6.1,1.62-12.1,3.63-18.09,5.65a157.6,157.6,0,0,0-20.63,8.51c-.49.23-1.39.49-1.57.27a2.79,2.79,0,0,1-.41-1.73,6.46,6.46,0,0,1,.33-1.72c.29-1.25.66-2.49.9-3.76,1.46-7.78,2.89-15.59,4.34-23.38.76-4.05,1.73-8.08,2.35-12.15a141.42,141.42,0,0,0,2.07-18.82,1.26,1.26,0,0,1,1-1.39c8-2.41,15.92-5.13,24-7.21,10.54-2.7,21.22-4.79,32-6.46a188.23,188.23,0,0,1,21.71-2.44c2.39-.09,4.81-.41,7.19-.73a13.33,13.33,0,0,0,3.22-.92,2.09,2.09,0,0,0,1.48-2.09A2.15,2.15,0,0,0,338.3.45a18.11,18.11,0,0,0-2.55-.3c-1-.06-1.92,0-2.88-.08-1.79,0-3.58-.07-5.36-.07A138.2,138.2,0,0,0,305,1.69"/></clipPath><linearGradient id="linear-gradient" x1="-109.52" y1="370.85" x2="-108.52" y2="370.85" gradientTransform="matrix(340.15, 0, 0, -340.15, 37255.13, 126247.68)" gradientUnits="userSpaceOnUse"><stop offset="0" stop-color="#ffe35f"/><stop offset="0" stop-color="#de9f17"/><stop offset="0.32" stop-color="#cf9a15"/><stop offset="0.68" stop-color="#fff68a"/><stop offset="1" stop-color="#ffcf45"/></linearGradient><clipPath id="clip-path-2"><path class="cls-1" d="M337.1,109.28c-1.48-2.2-3.1-4.32-3.35-7.15a21.82,21.82,0,0,1,1.51-10.82,4.47,4.47,0,0,1,2.42-2.66c1.22-.46,1.8-.22,2.38,1,1.68,3.41,1.68,3.41,1.59,7.24a45.84,45.84,0,0,1-2,11.94,1.79,1.79,0,0,1-1.06,1.19h-.12a1.87,1.87,0,0,1-1.34-.71M329.92,87.2a18.92,18.92,0,0,0-2.75,10.41,20.64,20.64,0,0,0,2,9c.5,1,1,2.31,2.93,2.13l-1.1.76c1.24,1.27,2.22,2.58,3.85,3.24,1.86.75,2,1.37.93,3A29.3,29.3,0,0,1,324.44,126c-2.81,1.48-5,.56-6-2.51a28.33,28.33,0,0,1-.37-14.31c1.1-5.34,4.2-9.66,7.5-13.85,1-1.33,1.15-2.41.23-3.62a5.4,5.4,0,0,0-7.42-1.45A14.07,14.07,0,0,0,314,94.85a36.14,36.14,0,0,0-6.12,18.2,22.1,22.1,0,0,0,1.65,10.69,15.26,15.26,0,0,0,8.08,7.88,9.69,9.69,0,0,0,7.33.54,31.16,31.16,0,0,0,13.59-9.33c1.25-1.39,2.16-3.07,3.32-4.54.38-.49,1.13-1.07,1.63-1,1.14.13,2.57.32,3.3,1.06,1.43,1.45,3.25,1.84,5,2.35a42.46,42.46,0,0,0,15.74,1.51,73.3,73.3,0,0,0,14.94-3.08,23.12,23.12,0,0,0,9.21-5.07,1.78,1.78,0,0,0,.78-2c-.55.29-1,.5-1.41.77a28.48,28.48,0,0,1-4,2.6,50.61,50.61,0,0,1-19.84,4.19,47.3,47.3,0,0,1-21-4.3c-2-1-2-.88-1.19-2.9,1.36-3.53,2.82-7,3.84-10.7,1.82-6.39.89-12.33-3.78-17.37a7.78,7.78,0,0,0-5.67-2.62H339c-4.1,0-7,2.15-9.09,5.46"/></clipPath><linearGradient id="linear-gradient-2" x1="-109.52" y1="370.85" x2="-108.52" y2="370.85" gradientTransform="matrix(84.69, 0, 0, -84.69, 9583.51, 31514.71)" xlink:href="#linear-gradient"/></defs><title>Asset 5</title><g id="Layer_2" data-name="Layer 2"><g id="Layer_1-2" data-name="Layer 1"><g class="cls-2"><rect class="cls-3" width="340.3" height="204.85"/></g><g class="cls-4"><rect class="cls-5" x="307.61" y="81.74" width="85.08" height="51.23"/></g></g></g></svg>